<svg width="45" height="45" viewBox="0 0 45 45" fill="none" xmlns="http://www.w3.org/2000/svg">
<path d="M40.425 44.275L24.7792 28.6417C23.6209 29.5331 22.2939 30.2324 20.7982 30.7394C19.3026 31.2465 17.6673 31.5 15.8922 31.5C11.4079 31.5 7.63811 29.9697 4.58284 26.909C1.52761 23.8483 0 20.1247 0 15.7382C0 11.3516 1.53034 7.63194 4.59101 4.57917C7.65168 1.52639 11.3753 0 15.7618 0C20.1484 0 23.8681 1.52919 26.9208 4.58757C29.9736 7.64595 31.5 11.3697 31.5 15.7587C31.5 17.5418 31.2472 19.1625 30.7417 20.6208C30.2361 22.0792 29.4972 23.4694 28.525 24.7917L44.275 40.425L40.425 44.275ZM15.7757 26.1917C18.7307 26.1917 21.2054 25.1895 23.1999 23.1851C25.1944 21.1807 26.1917 18.7103 26.1917 15.774C26.1917 12.8377 25.1933 10.3594 23.1965 8.33893C21.1997 6.31853 18.7279 5.30833 15.7809 5.30833C12.8015 5.30833 10.3112 6.31853 8.31005 8.33893C6.30891 10.3594 5.30833 12.8377 5.30833 15.774C5.30833 18.7103 6.30605 21.1807 8.30148 23.1851C10.2969 25.1895 12.7884 26.1917 15.7757 26.1917Z" fill="black"/>
</svg>
